<svg width="18" height="16" viewBox="0 0 18 16" fill="none" xmlns="http://www.w3.org/2000/svg"><path d="M17.531 8.493c0 1.64-.314 3.08-.799 4.271a2.885 2.885 0 0 1-1.434 1.531C13.94 14.936 11.89 15.34 9 15.34s-4.94-.403-6.297-1.044a2.885 2.885 0 0 1-1.435-1.53c-.485-1.194-.8-2.632-.8-4.272 0-1.584.295-2.985.758-4.163a2.865 2.865 0 0 1 1.547-1.59 11.871 11.871 0 0 1 1.846-.603c.046-.153.096-.299.15-.434.177-.454.529-.813.974-1.002C6.56.35 7.645.125 9 .125c1.355 0 2.439.225 3.258.576.445.19.797.549.974 1.002.054.136.104.281.15.434.703.172 1.319.378 1.845.604a2.866 2.866 0 0 1 1.548 1.589c.462 1.176.756 2.579.756 4.163Zm-2.135-3.609c-.133-.34-.4-.612-.746-.76a10.67 10.67 0 0 0-1.805-.571 1.134 1.134 0 0 1-.84-.826 4.11 4.11 0 0 0-.152-.47.313.313 0 0 0-.172-.173c-.638-.272-1.525-.457-2.681-.457-1.155 0-2.043.185-2.68.457a.314.314 0 0 0-.173.173c-.055.14-.106.298-.15.47-.107.412-.43.731-.842.826-.704.161-1.306.358-1.805.572-.345.147-.612.42-.745.76-.397 1.01-.653 2.226-.653 3.608 0 1.43.273 2.679.688 3.7.135.331.38.594.69.74 1.147.543 2.986.903 5.67.903 2.685 0 4.524-.36 5.67-.902.31-.147.555-.41.69-.742.415-1.019.688-2.268.688-3.699 0-1.383-.256-2.6-.652-3.609Zm-4.08 3.344c0-1.245-.997-2.253-2.226-2.253-1.23 0-2.226 1.009-2.226 2.253 0 1.244.997 2.253 2.226 2.253s2.225-1.009 2.225-2.253Zm1.483 0c0 2.074-1.66 3.755-3.71 3.755-2.048 0-3.709-1.681-3.709-3.755s1.661-3.755 3.71-3.755c2.048 0 3.709 1.68 3.709 3.755Z" fill="#fff"></path></svg>