<svg width="24px" height="24px" viewBox="0 0 24 24" fill="none" xmlns="http://www.w3.org/2000/svg"><path fill-rule="evenodd" clip-rule="evenodd" d="m14.947 8.004 5.613-4.53a2.12 2.12 0 0 1 2.974.3c.732.9.586 2.226-.325 2.961l-5.613 4.53c-.241.195-.606.31-.915.286l-1.986-.2a.486.486 0 0 1-.436-.537l.217-1.978c.041-.305.23-.637.471-.832Zm-.334-3.244a2.9 2.9 0 0 1 1.336.324l-2.015 1.627a3.301 3.301 0 0 0-1.173 2.077l-.223 2.023a2.384 2.384 0 0 0 2.139 2.633l1.986.2c.29.022.58.006.861-.046v6.598c0 .46-.377.837-.835.804a1.488 1.488 0 0 1-.152-.017c-.163-.032-.373-.188-.431-.233a247.372 247.372 0 0 1-2.797-2.197 1.472 1.472 0 0 0-.655-.352h-5.42a2.911 2.911 0 0 1-2.91-2.912V7.672A2.912 2.912 0 0 1 7.236 4.76h7.377Z" fill="#fff"></path></svg>